<svg width="85" height="84" viewBox="0 0 85 84" fill="none" xmlns="http://www.w3.org/2000/svg">
<path d="M42.5026 13.8745C39.1762 13.8745 36.477 16.5737 36.477 19.9001C36.477 23.2377 39.1762 25.9257 42.5026 25.9257C45.829 25.9257 48.5282 23.2377 48.5282 19.9001C48.5282 16.5737 45.829 13.8745 42.5026 13.8745ZM45.101 20.4489L41.405 22.8681C40.9794 23.1593 40.397 22.8457 40.397 22.3305V17.4809C40.397 16.9657 40.9794 16.6521 41.405 16.9321L45.101 19.3625C45.493 19.6201 45.493 20.1913 45.101 20.4489ZM75.9256 71.8054H9.07503C8.21219 71.8066 7.38503 72.1499 6.77491 72.76C6.16479 73.3701 5.8215 74.1973 5.82031 75.0601V77.84C5.82031 78.3036 6.19663 78.68 6.66031 78.68H78.3403C78.5631 78.68 78.7767 78.5914 78.9343 78.4339C79.0918 78.2764 79.1803 78.0627 79.1803 77.84V75.0601C79.1791 74.1973 78.8358 73.3701 78.2257 72.76C77.6156 72.1499 76.7884 71.8066 75.9256 71.8054ZM77.5003 77H7.50031V75.0601C7.50031 74.191 8.20591 73.4854 9.07503 73.4854H75.9256C76.7936 73.4854 77.5003 74.191 77.5003 75.0601V77Z" fill="#303030"/>
<path d="M78.1168 26.1441L43.6096 5.62574C43.2739 5.42561 42.8904 5.31995 42.4996 5.31995C42.1089 5.31995 41.7254 5.42561 41.3897 5.62574L6.88253 26.1441C4.99197 27.2697 5.78717 30.1784 7.99133 30.1784H77.0057C79.2088 30.1784 80.0084 27.272 78.1168 26.1441ZM77.0069 28.4984H7.99021C7.48957 28.4984 7.31261 27.8432 7.74157 27.5878L42.2488 7.06942C42.3244 7.02412 42.4109 7.0002 42.4991 7.0002C42.5873 7.0002 42.6738 7.02412 42.7494 7.06942L77.2566 27.5878C77.69 27.8454 77.503 28.4984 77.0069 28.4984ZM22.6409 70.1209C22.8637 70.1209 23.0774 70.0324 23.2349 69.8749C23.3924 69.7174 23.4809 69.5037 23.4809 69.2809V67.5427C23.4809 66.1203 22.4393 64.9477 21.0796 64.7248V32.7017C21.0796 32.479 20.9911 32.2653 20.8336 32.1078C20.6761 31.9502 20.4624 31.8617 20.2396 31.8617C20.0169 31.8617 19.8032 31.9502 19.6457 32.1078C19.4881 32.2653 19.3996 32.479 19.3996 32.7017V64.6777H11.3233V32.7017C11.3233 32.479 11.2348 32.2653 11.0773 32.1078C10.9198 31.9502 10.7061 31.8617 10.4833 31.8617C10.2605 31.8617 10.0469 31.9502 9.88936 32.1078C9.73183 32.2653 9.64333 32.479 9.64333 32.7017V64.7248C8.97411 64.8339 8.36536 65.177 7.92559 65.6931C7.48581 66.2092 7.24357 66.8647 7.24205 67.5427V69.2809C7.24205 69.5037 7.33055 69.7174 7.48808 69.8749C7.64561 70.0324 7.85927 70.1209 8.08205 70.1209C8.30483 70.1209 8.51849 70.0324 8.67602 69.8749C8.83355 69.7174 8.92205 69.5037 8.92205 69.2809V67.5427C8.92205 66.8897 9.45181 66.3577 10.1048 66.3577H20.6182C21.2712 66.3577 21.802 66.8897 21.802 67.5427V69.2809C21.802 69.7446 22.1761 70.1209 22.6409 70.1209ZM76.9094 70.1209C77.1322 70.1209 77.3458 70.0324 77.5034 69.8749C77.6609 69.7174 77.7494 69.5037 77.7494 69.2809V67.5427C77.7494 66.1203 76.7067 64.9477 75.347 64.7248V32.7017C75.347 32.479 75.2585 32.2653 75.101 32.1078C74.9435 31.9502 74.7298 31.8617 74.507 31.8617C74.2842 31.8617 74.0706 31.9502 73.913 32.1078C73.7555 32.2653 73.667 32.479 73.667 32.7017V64.6777H65.5918V32.7017C65.5918 32.479 65.5033 32.2653 65.3458 32.1078C65.1883 31.9502 64.9746 31.8617 64.7518 31.8617C64.529 31.8617 64.3154 31.9502 64.1578 32.1078C64.0003 32.2653 63.9118 32.479 63.9118 32.7017V64.7248C63.2424 64.8336 62.6334 65.1767 62.1934 65.6928C61.7534 66.2089 61.511 66.8645 61.5094 67.5427V69.2809C61.5094 69.5037 61.5979 69.7174 61.7554 69.8749C61.913 70.0324 62.1266 70.1209 62.3494 70.1209C62.5722 70.1209 62.7859 70.0324 62.9434 69.8749C63.1009 69.7174 63.1894 69.5037 63.1894 69.2809V67.5427C63.1894 66.8897 63.7192 66.3577 64.3721 66.3577H74.8856C75.5385 66.3577 76.0694 66.8897 76.0694 67.5427V69.2809C76.0694 69.7446 76.4457 70.1209 76.9094 70.1209Z" fill="#303030"/>
<path d="M13.3327 37.6913H17.3938C17.853 37.6913 18.2237 37.3195 18.2237 36.8614V35.4413C18.2239 35.3323 18.2026 35.2244 18.161 35.1237C18.1194 35.0231 18.0584 34.9316 17.9814 34.8545C17.9044 34.7774 17.813 34.7163 17.7124 34.6745C17.6117 34.6328 17.5039 34.6113 17.3949 34.6113H13.3327C13.1129 34.6113 12.9021 34.6987 12.7467 34.8541C12.5912 35.0095 12.5039 35.2203 12.5039 35.4401V36.8614C12.5039 37.3206 12.8746 37.6913 13.3327 37.6913ZM12.5039 45.2144C12.5039 45.6725 12.8746 46.0432 13.3327 46.0432H17.3938C17.5028 46.0433 17.6107 46.022 17.7113 45.9804C17.812 45.9388 17.9035 45.8778 17.9806 45.8008C18.0577 45.7238 18.1188 45.6324 18.1606 45.5318C18.2023 45.4312 18.2237 45.3233 18.2237 45.2144V43.792C18.2237 43.5722 18.1364 43.3614 17.981 43.2059C17.8256 43.0505 17.6148 42.9632 17.3949 42.9632H13.3327C13.1129 42.9632 12.9021 43.0505 12.7467 43.2059C12.5912 43.3614 12.5039 43.5722 12.5039 43.792V45.2144ZM12.5039 53.5662C12.5039 54.0254 12.8746 54.395 13.3327 54.395H17.3938C17.5028 54.3952 17.6107 54.3738 17.7113 54.3323C17.812 54.2907 17.9035 54.2296 17.9806 54.1527C18.0577 54.0757 18.1188 53.9843 18.1606 53.8836C18.2023 53.783 18.2237 53.6751 18.2237 53.5662V52.1461C18.2239 52.0371 18.2026 51.9292 18.161 51.8285C18.1194 51.7279 18.0584 51.6364 17.9814 51.5593C17.9044 51.4822 17.813 51.4211 17.7124 51.3793C17.6117 51.3376 17.5039 51.3161 17.3949 51.3161H13.3327C13.1129 51.3161 12.9021 51.4035 12.7467 51.5589C12.5912 51.7143 12.5039 51.9251 12.5039 52.1449V53.5662ZM12.5039 61.9181C12.5039 62.3773 12.8746 62.748 13.3327 62.748H17.3938C17.5028 62.7481 17.6107 62.7268 17.7113 62.6852C17.812 62.6436 17.9035 62.5826 17.9806 62.5056C18.0577 62.4286 18.1188 62.3372 18.1606 62.2366C18.2023 62.136 18.2237 62.0281 18.2237 61.9192V60.4979C18.2235 60.2782 18.136 60.0675 17.9807 59.9122C17.8253 59.7568 17.6147 59.6694 17.3949 59.6691H13.3327C13.1129 59.6691 12.9021 59.7564 12.7467 59.9118C12.5912 60.0673 12.5039 60.2781 12.5039 60.4979V61.9181ZM67.6001 37.6913H71.6623C72.1204 37.6913 72.4911 37.3195 72.4911 36.8614V35.4413C72.4913 35.3323 72.4699 35.2244 72.4283 35.1237C72.3868 35.0231 72.3257 34.9316 72.2488 34.8545C72.1718 34.7774 72.0804 34.7163 71.9797 34.6745C71.8791 34.6328 71.7712 34.6113 71.6623 34.6113H67.6001C67.4911 34.6112 67.3832 34.6325 67.2826 34.6741C67.1819 34.7157 67.0904 34.7767 67.0133 34.8537C66.9362 34.9307 66.8751 35.0221 66.8334 35.1227C66.7916 35.2233 66.7702 35.3312 66.7702 35.4401V36.8614C66.7702 37.3206 67.1431 37.6913 67.6001 37.6913ZM66.7713 45.2144C66.7713 45.6725 67.1431 46.0432 67.6001 46.0432H71.6623C71.8821 46.0432 72.0929 45.9559 72.2484 45.8004C72.4038 45.645 72.4911 45.4342 72.4911 45.2144V43.792C72.4911 43.5722 72.4038 43.3614 72.2484 43.2059C72.0929 43.0505 71.8821 42.9632 71.6623 42.9632H67.6001C67.4911 42.963 67.3832 42.9844 67.2826 43.0259C67.1819 43.0675 67.0904 43.1286 67.0133 43.2055C66.9362 43.2825 66.8751 43.3739 66.8334 43.4745C66.7916 43.5752 66.7702 43.683 66.7702 43.792L66.7713 45.2144ZM66.7713 53.5662C66.7713 54.0254 67.1431 54.395 67.6001 54.395H71.6623C71.8821 54.395 72.0929 54.3077 72.2484 54.1523C72.4038 53.9968 72.4911 53.786 72.4911 53.5662V52.1461C72.4913 52.0371 72.4699 51.9292 72.4283 51.8285C72.3868 51.7279 72.3257 51.6364 72.2488 51.5593C72.1718 51.4822 72.0804 51.4211 71.9797 51.3793C71.8791 51.3376 71.7712 51.3161 71.6623 51.3161H67.6001C67.4911 51.316 67.3832 51.3373 67.2826 51.3789C67.1819 51.4205 67.0904 51.4815 67.0133 51.5585C66.9362 51.6355 66.8751 51.7269 66.8334 51.8275C66.7916 51.9281 66.7702 52.036 66.7702 52.1449L66.7713 53.5662ZM66.7713 61.9181C66.7713 62.3773 67.1431 62.748 67.6001 62.748H71.6623C71.8821 62.748 72.0929 62.6607 72.2484 62.5052C72.4038 62.3498 72.4911 62.139 72.4911 61.9192V60.4979C72.4908 60.2782 72.4034 60.0675 72.248 59.9122C72.0927 59.7568 71.882 59.6694 71.6623 59.6691H67.6001C67.4911 59.669 67.3832 59.6903 67.2826 59.7319C67.1819 59.7735 67.0904 59.8345 67.0133 59.9114C66.9362 59.9884 66.8751 60.0798 66.8334 60.1805C66.7916 60.2811 66.7702 60.389 66.7702 60.4979L66.7713 61.9181ZM50.9054 45.1673C50.6826 45.1673 50.4689 45.2558 50.3114 45.4134C50.1539 45.5709 50.0654 45.7846 50.0654 46.0073C50.0654 46.2301 50.1539 46.4438 50.3114 46.6013C50.4689 46.7588 50.6826 46.8473 50.9054 46.8473H52.2561C52.4734 47.1822 52.7982 47.4432 53.2081 47.5451C55.5713 48.1208 55.5926 48.1768 55.9297 48.1768C56.7551 48.1768 57.4775 47.507 57.4775 46.6233V41.8409C57.4775 40.8352 56.5322 40.0893 55.5489 40.3357L53.2081 40.9192C52.8132 41.0215 52.4725 41.2712 52.2561 41.6169H50.9054C50.6826 41.6169 50.4689 41.7054 50.3114 41.863C50.1539 42.0205 50.0654 42.2342 50.0654 42.4569C50.0654 42.6797 50.1539 42.8934 50.3114 43.0509C50.4689 43.2084 50.6826 43.2969 50.9054 43.2969H51.9828V45.1673H50.9054ZM55.7986 41.9552L55.8457 46.4744L53.6617 45.9782V42.5365L55.7986 41.9552ZM39.3425 32.4643C38.0578 32.4643 37.0173 33.5059 37.0173 34.7894V35.0269H36.585C35.6106 35.0269 34.8199 35.8165 34.8199 36.7875V37.5525C34.8199 37.7752 34.9084 37.9889 35.0659 38.1464C35.2235 38.304 35.4371 38.3925 35.6599 38.3925C35.8827 38.3925 36.0963 38.304 36.2539 38.1464C36.4114 37.9889 36.4999 37.7752 36.4999 37.5525V36.7875C36.4999 36.7427 36.538 36.7069 36.585 36.7069C42.2522 36.7438 42.1828 36.6285 42.1828 36.7875V37.5525C42.1828 37.7752 42.2713 37.9889 42.4288 38.1464C42.5863 38.304 42.8 38.3925 43.0228 38.3925C43.2456 38.3925 43.4592 38.304 43.6168 38.1464C43.7743 37.9889 43.8628 37.7752 43.8628 37.5525V36.7875C43.8628 35.8165 43.0732 35.0269 42.1033 35.0269H41.6665V34.7894C41.6665 33.5059 40.626 32.4643 39.3425 32.4643ZM30.1921 41.5598H29.9289C29.0653 41.5598 28.3642 42.2598 28.3642 43.1245V43.8121C28.3642 44.6757 29.0653 45.3768 29.9289 45.3768H30.1932C30.2771 45.3768 30.3602 45.3602 30.4378 45.3281C30.5153 45.2959 30.5857 45.2488 30.645 45.1894C30.7043 45.13 30.7513 45.0595 30.7833 44.9819C30.8153 44.9043 30.8317 44.8212 30.8316 44.7373V44.3083H32.1812V47.0254C32.1812 48.2014 33.1377 49.1557 34.3114 49.1557H38.2314V53.4184C38.2314 53.6412 38.3199 53.8548 38.4775 54.0123C38.635 54.1699 38.8486 54.2584 39.0714 54.2584C39.2942 54.2584 39.5079 54.1699 39.6654 54.0123C39.8229 53.8548 39.9114 53.6412 39.9114 53.4184V49.1568H41.9353V53.4195C41.9353 53.6423 42.0238 53.8559 42.1813 54.0135C42.3388 54.171 42.5525 54.2595 42.7753 54.2595C42.9981 54.2595 43.2117 54.171 43.3692 54.0135C43.5268 53.8559 43.6153 53.6423 43.6153 53.4195V49.1568H46.4814C47.046 49.1562 47.5874 48.9315 47.9866 48.5321C48.3858 48.1327 48.6102 47.5912 48.6105 47.0265V41.44C48.6099 40.8754 48.3854 40.3341 47.9863 39.9347C47.5872 39.5354 47.046 39.3106 46.4814 39.3097H34.3114C33.7467 39.3106 33.2054 39.5353 32.8061 39.9347C32.4068 40.334 32.1821 40.8753 32.1812 41.44V42.6272H30.8316V42.1993C30.8317 42.1154 30.8153 42.0323 30.7833 41.9547C30.7513 41.8771 30.7043 41.8066 30.645 41.7472C30.5857 41.6878 30.5153 41.6407 30.4378 41.6085C30.3602 41.5764 30.276 41.5598 30.1921 41.5598ZM33.8623 41.44C33.8623 41.1925 34.0639 40.9897 34.3125 40.9897H46.4825C46.73 40.9897 46.9316 41.1913 46.9316 41.44V47.0254C46.9316 47.2741 46.73 47.4757 46.4825 47.4757H34.3114C34.192 47.4757 34.0775 47.4282 33.9931 47.3438C33.9086 47.2593 33.8612 47.1448 33.8612 47.0254L33.8623 41.44Z" fill="#303030"/>
<path d="M36.4513 45.7106H44.3394C44.5687 45.7106 44.7887 45.6195 44.9508 45.4573C45.113 45.2952 45.2041 45.0752 45.2041 44.8459V43.6195C45.2041 43.3902 45.113 43.1703 44.9508 43.0081C44.7887 42.846 44.5687 42.7549 44.3394 42.7549H36.4501C36.2208 42.7549 36.0009 42.846 35.8387 43.0081C35.6766 43.1703 35.5855 43.3902 35.5855 43.6195V44.8459C35.5855 45.323 35.9741 45.7106 36.4513 45.7106ZM32.025 58.501L34.0937 55.524C34.1585 55.4303 34.1841 55.3149 34.1651 55.2025C34.146 55.0902 34.0838 54.9897 33.9917 54.9226L36.1265 51.8538C36.1894 51.7631 36.2339 51.6609 36.2573 51.553C36.2808 51.4452 36.2828 51.3338 36.2632 51.2251C36.2436 51.1165 36.2028 51.0128 36.1431 50.9199C36.0834 50.8271 36.006 50.7469 35.9153 50.6839C35.8247 50.621 35.7225 50.5765 35.6146 50.553C35.5068 50.5296 35.3953 50.5276 35.2867 50.5472C35.1781 50.5668 35.0744 50.6076 34.9815 50.6673C34.8886 50.727 34.8084 50.8044 34.7455 50.8951L32.6119 53.9638C32.517 53.9004 32.4011 53.8766 32.2889 53.8975C32.1767 53.9184 32.0772 53.9825 32.0116 54.0758L29.9418 57.0528C29.7498 57.3291 29.6753 57.6703 29.7349 58.0014C29.7944 58.3325 29.9831 58.6264 30.2593 58.8185C30.5356 59.0105 30.8768 59.085 31.2079 59.0254C31.5391 58.9659 31.833 58.7772 32.025 58.501ZM52.7473 36.9902C52.7473 36.7675 52.6588 36.5538 52.5012 36.3963C52.3437 36.2387 52.13 36.1502 51.9073 36.1502H45.2455C45.0227 36.1502 44.8091 36.2387 44.6515 36.3963C44.494 36.5538 44.4055 36.7675 44.4055 36.9902C44.4055 37.213 44.494 37.4267 44.6515 37.5842C44.8091 37.7417 45.0227 37.8302 45.2455 37.8302H51.9073C52.13 37.8302 52.3437 37.7417 52.5012 37.5842C52.6588 37.4267 52.7473 37.213 52.7473 36.9902ZM44.9017 60.4643V58.3173C44.9008 57.6662 44.6417 57.0421 44.1812 56.5819C43.7208 56.1217 43.0965 55.8628 42.4455 55.8622H39.3991C38.7481 55.8628 38.1238 56.1217 37.6634 56.5819C37.2029 57.0421 36.9438 57.6662 36.9429 58.3173V60.4643C36.9429 60.928 37.3193 61.3043 37.7829 61.3043H44.0617C44.2844 61.3043 44.4981 61.2158 44.6556 61.0583C44.8132 60.9008 44.9017 60.6871 44.9017 60.4643ZM43.2217 59.6243H38.6229V58.3173C38.6229 57.8906 38.9701 57.5422 39.398 57.5422H42.4455C42.8733 57.5422 43.2217 57.8894 43.2217 58.3173V59.6243ZM40.0778 62.972V69.3829C40.0778 69.6057 40.1663 69.8193 40.3238 69.9769C40.4814 70.1344 40.695 70.2229 40.9178 70.2229C41.1406 70.2229 41.3543 70.1344 41.5118 69.9769C41.6693 69.8193 41.7578 69.6057 41.7578 69.3829V62.972C41.7578 62.7492 41.6693 62.5356 41.5118 62.378C41.3543 62.2205 41.1406 62.132 40.9178 62.132C40.695 62.132 40.4814 62.2205 40.3238 62.378C40.1663 62.5356 40.0778 62.7492 40.0778 62.972ZM33.8663 70.224C34.1407 70.224 34.4095 70.0896 34.5708 69.8421L38.7506 63.4301C38.811 63.3379 38.8527 63.2346 38.8731 63.1263C38.8935 63.0179 38.8924 62.9066 38.8697 62.7987C38.847 62.6908 38.8032 62.5884 38.7409 62.4975C38.6786 62.4065 38.5989 62.3287 38.5065 62.2686C38.4142 62.208 38.3108 62.1661 38.2022 62.1456C38.0937 62.1251 37.9822 62.1263 37.8741 62.1491C37.766 62.1719 37.6635 62.2159 37.5725 62.2785C37.4815 62.3411 37.4038 62.4211 37.3439 62.5139L33.1641 68.9248C33.0814 69.0515 33.0344 69.1981 33.0282 69.3492C33.0219 69.5004 33.0565 69.6504 33.1285 69.7834C33.2004 69.9165 33.3069 70.0277 33.4368 70.1052C33.5666 70.1828 33.715 70.2238 33.8663 70.224ZM47.3713 69.8421C47.4967 70.0194 47.6859 70.1412 47.8993 70.182C48.1126 70.2227 48.3334 70.1793 48.5154 70.0608C48.6974 69.9422 48.8264 69.7579 48.8753 69.5463C48.9243 69.3347 48.8894 69.1123 48.778 68.9259L44.5981 62.5139C44.5383 62.4212 44.4607 62.3412 44.3699 62.2786C44.279 62.2159 44.1767 62.1719 44.0687 62.149C43.9607 62.1261 43.8493 62.1248 43.7409 62.1451C43.6324 62.1655 43.529 62.2071 43.4367 62.2675C43.344 62.3275 43.2641 62.4053 43.2016 62.4963C43.139 62.5873 43.0951 62.6898 43.0723 62.7978C43.0495 62.9058 43.0483 63.0173 43.0687 63.1258C43.0892 63.2343 43.1309 63.3377 43.1914 63.4301L47.3713 69.8421ZM20.2359 16.1146C20.4587 16.1146 20.6723 16.0261 20.8299 15.8685C20.9874 15.711 21.0759 15.4973 21.0759 15.2746V10.8125H22.7783C23.681 10.8125 24.4157 10.0766 24.4157 9.17505V6.95745C24.4157 6.05473 23.681 5.32001 22.7794 5.32001H9.34614C8.44454 5.32001 7.71094 6.05473 7.71094 6.95745V9.17505C7.71094 10.0766 8.44454 10.8125 9.34614 10.8125H11.0407V20.2362C11.0407 20.459 11.1292 20.6726 11.2867 20.8301C11.4443 20.9877 11.6579 21.0762 11.8807 21.0762C12.1035 21.0762 12.3171 20.9877 12.4747 20.8301C12.6322 20.6726 12.7207 20.459 12.7207 20.2362V10.817H19.3959V15.2746C19.3959 15.7382 19.7722 16.1146 20.2359 16.1146ZM9.34726 7.00001L22.7369 6.95745V9.13249C8.35606 9.13921 18.1113 9.11457 9.39094 9.17505L9.34726 7.00001Z" fill="#303030"/>
</svg>
