<svg width="84" height="84" viewBox="0 0 84 84" fill="none" xmlns="http://www.w3.org/2000/svg">
<path d="M42.0026 13.8745C38.6762 13.8745 35.977 16.5737 35.977 19.9001C35.977 23.2377 38.6762 25.9257 42.0026 25.9257C45.329 25.9257 48.0282 23.2377 48.0282 19.9001C48.0282 16.5737 45.329 13.8745 42.0026 13.8745ZM44.601 20.4489L40.905 22.8681C40.4794 23.1593 39.897 22.8457 39.897 22.3305V17.4809C39.897 16.9657 40.4794 16.6521 40.905 16.9321L44.601 19.3625C44.993 19.6201 44.993 20.1913 44.601 20.4489ZM75.4256 71.8054H8.57503C7.71219 71.8066 6.88503 72.1499 6.27491 72.76C5.66479 73.3701 5.3215 74.1973 5.32031 75.0601V77.84C5.32031 78.3036 5.69663 78.68 6.16031 78.68H77.8403C78.0631 78.68 78.2767 78.5914 78.4343 78.4339C78.5918 78.2764 78.6803 78.0627 78.6803 77.84V75.0601C78.6791 74.1973 78.3358 73.3701 77.7257 72.76C77.1156 72.1499 76.2884 71.8066 75.4256 71.8054ZM77.0003 77H7.00031V75.0601C7.00031 74.191 7.70591 73.4854 8.57503 73.4854H75.4256C76.2936 73.4854 77.0003 74.191 77.0003 75.0601V77Z" fill="white"/>
<path d="M77.6168 26.1441L43.1096 5.62574C42.7739 5.42561 42.3904 5.31995 41.9996 5.31995C41.6089 5.31995 41.2254 5.42561 40.8897 5.62574L6.38253 26.1441C4.49197 27.2697 5.28717 30.1784 7.49133 30.1784H76.5057C78.7088 30.1784 79.5084 27.272 77.6168 26.1441ZM76.5069 28.4984H7.49021C6.98957 28.4984 6.81261 27.8432 7.24157 27.5878L41.7488 7.06942C41.8244 7.02412 41.9109 7.0002 41.9991 7.0002C42.0873 7.0002 42.1738 7.02412 42.2494 7.06942L76.7566 27.5878C77.19 27.8454 77.003 28.4984 76.5069 28.4984ZM22.1409 70.1209C22.3637 70.1209 22.5774 70.0324 22.7349 69.8749C22.8924 69.7174 22.9809 69.5037 22.9809 69.2809V67.5427C22.9809 66.1203 21.9393 64.9477 20.5796 64.7248V32.7017C20.5796 32.479 20.4911 32.2653 20.3336 32.1078C20.1761 31.9502 19.9624 31.8617 19.7396 31.8617C19.5169 31.8617 19.3032 31.9502 19.1457 32.1078C18.9881 32.2653 18.8996 32.479 18.8996 32.7017V64.6777H10.8233V32.7017C10.8233 32.479 10.7348 32.2653 10.5773 32.1078C10.4198 31.9502 10.2061 31.8617 9.98333 31.8617C9.76055 31.8617 9.54689 31.9502 9.38936 32.1078C9.23183 32.2653 9.14333 32.479 9.14333 32.7017V64.7248C8.47411 64.8339 7.86536 65.177 7.42559 65.6931C6.98581 66.2092 6.74357 66.8647 6.74205 67.5427V69.2809C6.74205 69.5037 6.83055 69.7174 6.98808 69.8749C7.14561 70.0324 7.35927 70.1209 7.58205 70.1209C7.80483 70.1209 8.01849 70.0324 8.17602 69.8749C8.33355 69.7174 8.42205 69.5037 8.42205 69.2809V67.5427C8.42205 66.8897 8.95181 66.3577 9.60477 66.3577H20.1182C20.7712 66.3577 21.302 66.8897 21.302 67.5427V69.2809C21.302 69.7446 21.6761 70.1209 22.1409 70.1209ZM76.4094 70.1209C76.6322 70.1209 76.8458 70.0324 77.0034 69.8749C77.1609 69.7174 77.2494 69.5037 77.2494 69.2809V67.5427C77.2494 66.1203 76.2067 64.9477 74.847 64.7248V32.7017C74.847 32.479 74.7585 32.2653 74.601 32.1078C74.4435 31.9502 74.2298 31.8617 74.007 31.8617C73.7842 31.8617 73.5706 31.9502 73.413 32.1078C73.2555 32.2653 73.167 32.479 73.167 32.7017V64.6777H65.0918V32.7017C65.0918 32.479 65.0033 32.2653 64.8458 32.1078C64.6883 31.9502 64.4746 31.8617 64.2518 31.8617C64.029 31.8617 63.8154 31.9502 63.6578 32.1078C63.5003 32.2653 63.4118 32.479 63.4118 32.7017V64.7248C62.7424 64.8336 62.1334 65.1767 61.6934 65.6928C61.2534 66.2089 61.011 66.8645 61.0094 67.5427V69.2809C61.0094 69.5037 61.0979 69.7174 61.2554 69.8749C61.413 70.0324 61.6266 70.1209 61.8494 70.1209C62.0722 70.1209 62.2859 70.0324 62.4434 69.8749C62.6009 69.7174 62.6894 69.5037 62.6894 69.2809V67.5427C62.6894 66.8897 63.2192 66.3577 63.8721 66.3577H74.3856C75.0385 66.3577 75.5694 66.8897 75.5694 67.5427V69.2809C75.5694 69.7446 75.9457 70.1209 76.4094 70.1209Z" fill="white"/>
<path d="M12.8327 37.6913H16.8938C17.353 37.6913 17.7237 37.3195 17.7237 36.8614V35.4413C17.7239 35.3323 17.7026 35.2244 17.661 35.1237C17.6194 35.0231 17.5584 34.9316 17.4814 34.8545C17.4044 34.7774 17.313 34.7163 17.2124 34.6745C17.1117 34.6328 17.0039 34.6113 16.8949 34.6113H12.8327C12.6129 34.6113 12.4021 34.6987 12.2467 34.8541C12.0912 35.0095 12.0039 35.2203 12.0039 35.4401V36.8614C12.0039 37.3206 12.3746 37.6913 12.8327 37.6913ZM12.0039 45.2144C12.0039 45.6725 12.3746 46.0432 12.8327 46.0432H16.8938C17.0028 46.0433 17.1107 46.022 17.2113 45.9804C17.312 45.9388 17.4035 45.8778 17.4806 45.8008C17.5577 45.7238 17.6188 45.6324 17.6606 45.5318C17.7023 45.4312 17.7237 45.3233 17.7237 45.2144V43.792C17.7237 43.5722 17.6364 43.3614 17.481 43.2059C17.3256 43.0505 17.1148 42.9632 16.8949 42.9632H12.8327C12.6129 42.9632 12.4021 43.0505 12.2467 43.2059C12.0912 43.3614 12.0039 43.5722 12.0039 43.792V45.2144ZM12.0039 53.5662C12.0039 54.0254 12.3746 54.395 12.8327 54.395H16.8938C17.0028 54.3952 17.1107 54.3738 17.2113 54.3323C17.312 54.2907 17.4035 54.2296 17.4806 54.1527C17.5577 54.0757 17.6188 53.9843 17.6606 53.8836C17.7023 53.783 17.7237 53.6751 17.7237 53.5662V52.1461C17.7239 52.0371 17.7026 51.9292 17.661 51.8285C17.6194 51.7279 17.5584 51.6364 17.4814 51.5593C17.4044 51.4822 17.313 51.4211 17.2124 51.3793C17.1117 51.3376 17.0039 51.3161 16.8949 51.3161H12.8327C12.6129 51.3161 12.4021 51.4035 12.2467 51.5589C12.0912 51.7143 12.0039 51.9251 12.0039 52.1449V53.5662ZM12.0039 61.9181C12.0039 62.3773 12.3746 62.748 12.8327 62.748H16.8938C17.0028 62.7481 17.1107 62.7268 17.2113 62.6852C17.312 62.6436 17.4035 62.5826 17.4806 62.5056C17.5577 62.4286 17.6188 62.3372 17.6606 62.2366C17.7023 62.136 17.7237 62.0281 17.7237 61.9192V60.4979C17.7235 60.2782 17.636 60.0675 17.4807 59.9122C17.3253 59.7568 17.1147 59.6694 16.8949 59.6691H12.8327C12.6129 59.6691 12.4021 59.7564 12.2467 59.9118C12.0912 60.0673 12.0039 60.2781 12.0039 60.4979V61.9181ZM67.1001 37.6913H71.1623C71.6204 37.6913 71.9911 37.3195 71.9911 36.8614V35.4413C71.9913 35.3323 71.9699 35.2244 71.9283 35.1237C71.8868 35.0231 71.8257 34.9316 71.7488 34.8545C71.6718 34.7774 71.5804 34.7163 71.4797 34.6745C71.3791 34.6328 71.2712 34.6113 71.1623 34.6113H67.1001C66.9911 34.6112 66.8832 34.6325 66.7826 34.6741C66.6819 34.7157 66.5904 34.7767 66.5133 34.8537C66.4362 34.9307 66.3751 35.0221 66.3333 35.1227C66.2916 35.2233 66.2701 35.3312 66.2701 35.4401V36.8614C66.2701 37.3206 66.6431 37.6913 67.1001 37.6913ZM66.2713 45.2144C66.2713 45.6725 66.6431 46.0432 67.1001 46.0432H71.1623C71.3821 46.0432 71.5929 45.9559 71.7484 45.8004C71.9038 45.645 71.9911 45.4342 71.9911 45.2144V43.792C71.9911 43.5722 71.9038 43.3614 71.7484 43.2059C71.5929 43.0505 71.3821 42.9632 71.1623 42.9632H67.1001C66.9911 42.963 66.8832 42.9844 66.7826 43.0259C66.6819 43.0675 66.5904 43.1286 66.5133 43.2055C66.4362 43.2825 66.3751 43.3739 66.3333 43.4745C66.2916 43.5752 66.2701 43.683 66.2701 43.792L66.2713 45.2144ZM66.2713 53.5662C66.2713 54.0254 66.6431 54.395 67.1001 54.395H71.1623C71.3821 54.395 71.5929 54.3077 71.7484 54.1523C71.9038 53.9968 71.9911 53.786 71.9911 53.5662V52.1461C71.9913 52.0371 71.9699 51.9292 71.9283 51.8285C71.8868 51.7279 71.8257 51.6364 71.7488 51.5593C71.6718 51.4822 71.5804 51.4211 71.4797 51.3793C71.3791 51.3376 71.2712 51.3161 71.1623 51.3161H67.1001C66.9911 51.316 66.8832 51.3373 66.7826 51.3789C66.6819 51.4205 66.5904 51.4815 66.5133 51.5585C66.4362 51.6355 66.3751 51.7269 66.3333 51.8275C66.2916 51.9281 66.2701 52.036 66.2701 52.1449L66.2713 53.5662ZM66.2713 61.9181C66.2713 62.3773 66.6431 62.748 67.1001 62.748H71.1623C71.3821 62.748 71.5929 62.6607 71.7484 62.5052C71.9038 62.3498 71.9911 62.139 71.9911 61.9192V60.4979C71.9908 60.2782 71.9034 60.0675 71.748 59.9122C71.5927 59.7568 71.382 59.6694 71.1623 59.6691H67.1001C66.9911 59.6689 66.8832 59.6903 66.7826 59.7319C66.6819 59.7734 66.5904 59.8345 66.5133 59.9114C66.4362 59.9884 66.3751 60.0798 66.3333 60.1805C66.2916 60.2811 66.2701 60.389 66.2701 60.4979L66.2713 61.9181ZM50.4053 45.1673C50.1826 45.1673 49.9689 45.2558 49.8114 45.4134C49.6539 45.5709 49.5653 45.7846 49.5653 46.0073C49.5653 46.2301 49.6539 46.4438 49.8114 46.6013C49.9689 46.7588 50.1826 46.8473 50.4053 46.8473H51.7561C51.9733 47.1822 52.2981 47.4432 52.7081 47.5451C55.0713 48.1208 55.0925 48.1768 55.4297 48.1768C56.2551 48.1768 56.9775 47.507 56.9775 46.6233V41.8409C56.9775 40.8352 56.0322 40.0893 55.0489 40.3357L52.7081 40.9192C52.3132 41.0215 51.9725 41.2712 51.7561 41.6169H50.4053C50.1826 41.6169 49.9689 41.7054 49.8114 41.863C49.6539 42.0205 49.5653 42.2342 49.5653 42.4569C49.5653 42.6797 49.6539 42.8934 49.8114 43.0509C49.9689 43.2084 50.1826 43.2969 50.4053 43.2969H51.4828V45.1673H50.4053ZM55.2986 41.9552L55.3457 46.4744L53.1617 45.9782V42.5365L55.2986 41.9552ZM38.8425 32.4643C37.5578 32.4643 36.5173 33.5059 36.5173 34.7894V35.0269H36.085C35.1106 35.0269 34.3199 35.8165 34.3199 36.7875V37.5525C34.3199 37.7752 34.4084 37.9889 34.5659 38.1464C34.7235 38.304 34.9371 38.3925 35.1599 38.3925C35.3827 38.3925 35.5963 38.304 35.7539 38.1464C35.9114 37.9889 35.9999 37.7752 35.9999 37.5525V36.7875C35.9999 36.7427 36.038 36.7069 36.085 36.7069C41.7522 36.7438 41.6828 36.6285 41.6828 36.7875V37.5525C41.6828 37.7752 41.7713 37.9889 41.9288 38.1464C42.0863 38.304 42.3 38.3925 42.5228 38.3925C42.7456 38.3925 42.9592 38.304 43.1168 38.1464C43.2743 37.9889 43.3628 37.7752 43.3628 37.5525V36.7875C43.3628 35.8165 42.5732 35.0269 41.6033 35.0269H41.1665V34.7894C41.1665 33.5059 40.126 32.4643 38.8425 32.4643ZM29.6921 41.5598H29.4289C28.5653 41.5598 27.8642 42.2598 27.8642 43.1245V43.8121C27.8642 44.6757 28.5653 45.3768 29.4289 45.3768H29.6932C29.7771 45.3768 29.8602 45.3602 29.9377 45.3281C30.0153 45.2959 30.0857 45.2488 30.145 45.1894C30.2043 45.13 30.2513 45.0595 30.2833 44.9819C30.3153 44.9043 30.3317 44.8212 30.3316 44.7373V44.3083H31.6812V47.0254C31.6812 48.2014 32.6377 49.1557 33.8114 49.1557H37.7314V53.4184C37.7314 53.6412 37.8199 53.8548 37.9775 54.0123C38.135 54.1699 38.3486 54.2584 38.5714 54.2584C38.7942 54.2584 39.0079 54.1699 39.1654 54.0123C39.3229 53.8548 39.4114 53.6412 39.4114 53.4184V49.1568H41.4353V53.4195C41.4353 53.6423 41.5238 53.8559 41.6813 54.0135C41.8388 54.171 42.0525 54.2595 42.2753 54.2595C42.498 54.2595 42.7117 54.171 42.8692 54.0135C43.0268 53.8559 43.1153 53.6423 43.1153 53.4195V49.1568H45.9813C46.546 49.1562 47.0874 48.9315 47.4866 48.5321C47.8858 48.1327 48.1102 47.5912 48.1105 47.0265V41.44C48.1099 40.8754 47.8854 40.3341 47.4863 39.9347C47.0872 39.5354 46.546 39.3106 45.9813 39.3097H33.8114C33.2467 39.3106 32.7054 39.5353 32.3061 39.9346C31.9068 40.334 31.6821 40.8753 31.6812 41.44V42.6272H30.3316V42.1993C30.3317 42.1154 30.3153 42.0323 30.2833 41.9547C30.2513 41.8771 30.2043 41.8066 30.145 41.7472C30.0857 41.6878 30.0153 41.6407 29.9377 41.6085C29.8602 41.5764 29.776 41.5598 29.6921 41.5598ZM33.3623 41.44C33.3623 41.1925 33.5639 40.9897 33.8125 40.9897H45.9825C46.23 40.9897 46.4316 41.1913 46.4316 41.44V47.0254C46.4316 47.2741 46.23 47.4757 45.9825 47.4757H33.8114C33.692 47.4757 33.5775 47.4282 33.4931 47.3438C33.4086 47.2593 33.3612 47.1448 33.3612 47.0254L33.3623 41.44Z" fill="white"/>
<path d="M35.9513 45.7106H43.8394C44.0687 45.7106 44.2887 45.6195 44.4508 45.4573C44.613 45.2952 44.7041 45.0752 44.7041 44.8459V43.6195C44.7041 43.3902 44.613 43.1703 44.4508 43.0081C44.2887 42.846 44.0687 42.7549 43.8394 42.7549H35.9501C35.7208 42.7549 35.5009 42.846 35.3387 43.0081C35.1766 43.1703 35.0855 43.3902 35.0855 43.6195V44.8459C35.0855 45.323 35.4741 45.7106 35.9513 45.7106ZM31.525 58.501L33.5937 55.524C33.6585 55.4303 33.6841 55.3149 33.6651 55.2025C33.646 55.0902 33.5838 54.9897 33.4917 54.9226L35.6265 51.8538C35.6894 51.7631 35.7339 51.6609 35.7573 51.553C35.7808 51.4452 35.7828 51.3338 35.7632 51.2251C35.7436 51.1165 35.7028 51.0128 35.6431 50.9199C35.5834 50.8271 35.506 50.7469 35.4153 50.6839C35.3247 50.621 35.2225 50.5765 35.1146 50.553C35.0068 50.5296 34.8953 50.5276 34.7867 50.5472C34.6781 50.5668 34.5744 50.6076 34.4815 50.6673C34.3886 50.727 34.3084 50.8044 34.2455 50.8951L32.1119 53.9638C32.017 53.9004 31.9011 53.8766 31.7889 53.8975C31.6767 53.9184 31.5772 53.9825 31.5116 54.0758L29.4418 57.0528C29.2498 57.3291 29.1753 57.6703 29.2349 58.0014C29.2944 58.3325 29.4831 58.6264 29.7593 58.8185C30.0356 59.0105 30.3768 59.085 30.7079 59.0254C31.0391 58.9659 31.333 58.7772 31.525 58.501ZM52.2473 36.9902C52.2473 36.7675 52.1588 36.5538 52.0012 36.3963C51.8437 36.2387 51.63 36.1502 51.4073 36.1502H44.7455C44.5227 36.1502 44.3091 36.2387 44.1515 36.3963C43.994 36.5538 43.9055 36.7675 43.9055 36.9902C43.9055 37.213 43.994 37.4267 44.1515 37.5842C44.3091 37.7417 44.5227 37.8302 44.7455 37.8302H51.4073C51.63 37.8302 51.8437 37.7417 52.0012 37.5842C52.1588 37.4267 52.2473 37.213 52.2473 36.9902ZM44.4017 60.4643V58.3173C44.4008 57.6662 44.1417 57.0421 43.6812 56.5819C43.2208 56.1217 42.5965 55.8628 41.9455 55.8622H38.8991C38.2481 55.8628 37.6238 56.1217 37.1634 56.5819C36.7029 57.0421 36.4438 57.6662 36.4429 58.3173V60.4643C36.4429 60.928 36.8193 61.3043 37.2829 61.3043H43.5617C43.7844 61.3043 43.9981 61.2158 44.1556 61.0583C44.3132 60.9008 44.4017 60.6871 44.4017 60.4643ZM42.7217 59.6243H38.1229V58.3173C38.1229 57.8906 38.4701 57.5422 38.898 57.5422H41.9455C42.3733 57.5422 42.7217 57.8894 42.7217 58.3173V59.6243ZM39.5778 62.972V69.3829C39.5778 69.6057 39.6663 69.8193 39.8238 69.9769C39.9814 70.1344 40.195 70.2229 40.4178 70.2229C40.6406 70.2229 40.8543 70.1344 41.0118 69.9769C41.1693 69.8193 41.2578 69.6057 41.2578 69.3829V62.972C41.2578 62.7492 41.1693 62.5356 41.0118 62.378C40.8543 62.2205 40.6406 62.132 40.4178 62.132C40.195 62.132 39.9814 62.2205 39.8238 62.378C39.6663 62.5356 39.5778 62.7492 39.5778 62.972ZM33.3663 70.224C33.6407 70.224 33.9095 70.0896 34.0708 69.8421L38.2506 63.4301C38.311 63.3379 38.3527 63.2346 38.3731 63.1263C38.3935 63.0179 38.3924 62.9066 38.3697 62.7987C38.347 62.6908 38.3032 62.5884 38.2409 62.4975C38.1786 62.4065 38.0989 62.3287 38.0065 62.2686C37.9142 62.208 37.8108 62.1661 37.7022 62.1456C37.5937 62.1251 37.4822 62.1263 37.3741 62.1491C37.266 62.1719 37.1635 62.2159 37.0725 62.2785C36.9815 62.3411 36.9038 62.4211 36.8439 62.5139L32.6641 68.9248C32.5814 69.0515 32.5344 69.1981 32.5282 69.3492C32.5219 69.5004 32.5565 69.6504 32.6285 69.7834C32.7004 69.9165 32.8069 70.0277 32.9368 70.1052C33.0666 70.1828 33.215 70.2238 33.3663 70.224ZM46.8713 69.8421C46.9967 70.0194 47.1859 70.1412 47.3993 70.182C47.6126 70.2227 47.8334 70.1793 48.0154 70.0608C48.1974 69.9422 48.3264 69.7579 48.3753 69.5463C48.4243 69.3347 48.3894 69.1123 48.278 68.9259L44.0981 62.5139C44.0383 62.4212 43.9607 62.3412 43.8699 62.2786C43.779 62.2159 43.6767 62.1719 43.5687 62.149C43.4607 62.1261 43.3493 62.1248 43.2409 62.1451C43.1324 62.1655 43.029 62.2071 42.9367 62.2675C42.844 62.3275 42.7641 62.4053 42.7016 62.4963C42.639 62.5873 42.5951 62.6898 42.5723 62.7978C42.5495 62.9058 42.5483 63.0173 42.5687 63.1258C42.5892 63.2343 42.6309 63.3377 42.6914 63.4301L46.8713 69.8421ZM19.7359 16.1146C19.9587 16.1146 20.1723 16.0261 20.3299 15.8685C20.4874 15.711 20.5759 15.4973 20.5759 15.2746V10.8125H22.2783C23.181 10.8125 23.9157 10.0766 23.9157 9.17505V6.95745C23.9157 6.05473 23.181 5.32001 22.2794 5.32001H8.84614C7.94454 5.32001 7.21094 6.05473 7.21094 6.95745V9.17505C7.21094 10.0766 7.94454 10.8125 8.84614 10.8125H10.5407V20.2362C10.5407 20.459 10.6292 20.6726 10.7867 20.8301C10.9443 20.9877 11.1579 21.0762 11.3807 21.0762C11.6035 21.0762 11.8171 20.9877 11.9747 20.8301C12.1322 20.6726 12.2207 20.459 12.2207 20.2362V10.817H18.8959V15.2746C18.8959 15.7382 19.2722 16.1146 19.7359 16.1146ZM8.84726 7.00001L22.2369 6.95745V9.13249C7.85606 9.13921 17.6113 9.11457 8.89094 9.17505L8.84726 7.00001Z" fill="white"/>
</svg>
